<svg width="49" height="36" viewBox="0 0 49 36" fill="none" xmlns="http://www.w3.org/2000/svg">
<path d="M21.4124 8.57666H27.9307M7.86133 25.3869V34.6497H42.511V8.57666H36.8504" stroke="#F5F5F5" stroke-width="1.5" stroke-linejoin="round"/>
<rect x="1" y="3.77368" width="20.5839" height="21.6131" stroke="#F5F5F5" stroke-width="1.5" stroke-linejoin="round"/>
<path d="M22.3958 22.6423H47.9997V30.8759H11.6348V25.3869" stroke="#F5F5F5" stroke-width="1.5" stroke-linejoin="round"/>
<path d="M42.5106 22.6423V30.8759M39.9051 22.6423V30.8759M37.2996 22.6423V30.8759M34.6941 22.6423V30.8759M32.0886 22.6423V30.8759M29.4831 22.6423V30.8759M27.0637 22.6423V30.8759M24.4582 22.6423V30.8759M21.8527 22.6423V30.8759M19.2471 25.6661V30.8759M16.6416 25.6661V30.8759M14.0361 25.6661V30.8759M45.2551 22.6423V30.8759" stroke="#F5F5F5" stroke-width="1.5" stroke-linecap="round" stroke-linejoin="round"/>
<path d="M37.3007 5.83212C37.3007 8.66015 35.0812 10.9142 32.3901 10.9142C29.699 10.9142 27.4795 8.66015 27.4795 5.83212C27.4795 3.00408 29.699 0.75 32.3901 0.75C35.0812 0.75 37.3007 3.00408 37.3007 5.83212Z" stroke="#F5F5F5" stroke-width="1.5"/>
<path d="M7.86133 6.17529L7.86133 22.6424" stroke="#F5F5F5" stroke-width="1.5" stroke-linecap="round" stroke-linejoin="round"/>
<path d="M3.05859 10.978L19.5257 10.978" stroke="#F5F5F5" stroke-width="1.5" stroke-linecap="round" stroke-linejoin="round"/>
</svg>
