<svg width="46" height="43" viewBox="0 0 46 43" fill="none" xmlns="http://www.w3.org/2000/svg">
<path d="M6.82781 1V5.892M6.82781 30.352V5.892M1 6.43556V36.0593M6.82781 5.892H45V41.7667H6.82781" stroke="#F5F5F5" stroke-width="1.5" stroke-linecap="round" stroke-linejoin="round"/>
<path d="M7.11921 41.7657C3.73966 41.7657 1 39.2105 1 36.0584C1 32.9063 3.73966 30.3511 7.11921 30.3511" stroke="#F5F5F5" stroke-width="1.5" stroke-linejoin="round"/>
<path d="M1 6.70734C1 3.55526 3.73966 1 7.11921 1" stroke="#F5F5F5" stroke-width="1.5" stroke-linejoin="round"/>
<path d="M21.9803 11.3269H12.6558V23.8287M21.9803 11.3269V18.3931H26.3511M21.9803 11.3269H31.5962M31.5962 11.3269H38.8809V25.1876M31.5962 11.3269V20.2956M12.6558 23.8287V36.3305H21.9803M12.6558 23.8287H21.9803V27.3618M21.9803 31.982V36.3305M21.9803 36.3305H31.5962M38.8809 25.1876V36.3305H31.5962M38.8809 25.1876H31.5962V29.536M31.5962 33.8845V36.3305" stroke="#F5F5F5" stroke-width="1.5" stroke-linecap="round" stroke-linejoin="round"/>
</svg>
