<svg width="55" height="45" viewBox="0 0 55 45" fill="none"
                                                    xmlns="http://www.w3.org/2000/svg">
                                                    <path
                                                        d="M1 30.1721L4.66391 29.6217L5.40334 32.9203M15.8613 40.7518C7.01869 39.3484 2.83492 36.505 2.83492 32.9203C2.83492 31.7547 3.48412 30.6416 4.66429 29.6218M42.0979 40.7518C50.1673 39.2542 54.2073 36.3088 54.2073 32.9203C54.2073 31.7547 53.5581 30.6416 52.3779 29.6218"
                                                        stroke="#F5F5F5" stroke-width="1.5" stroke-linecap="round"
                                                        stroke-linejoin="round" />
                                                    <path d="M29.2545 5.03674H13.1089V30.7229H29.2545V5.03674Z"
                                                        stroke="#F5F5F5" stroke-width="1.5" stroke-linejoin="round" />
                                                    <path d="M29.6216 23.0165H35.8597" stroke="#F5F5F5"
                                                        stroke-width="1.5" stroke-linecap="round"
                                                        stroke-linejoin="round" />
                                                    <path d="M41.3641 26.6862V23.3837M41.3641 16.0448V1H29.2549V5.40334"
                                                        stroke="#F5F5F5" stroke-width="1.5" stroke-linejoin="round" />
                                                    <rect x="15.3101" y="8.70593" width="11.7423" height="3.66945"
                                                        stroke="#F5F5F5" stroke-width="1.5" stroke-linejoin="round" />
                                                    <rect x="15.3101" y="14.9441" width="11.7423" height="3.66945"
                                                        stroke="#F5F5F5" stroke-width="1.5" stroke-linejoin="round" />
                                                    <rect x="32.6392" y="3.56897" width="5.07805" height="3.51557"
                                                        stroke="#F5F5F5" stroke-width="1.5" stroke-linejoin="round" />
                                                    <rect x="32.6392" y="9.38086" width="5.07805" height="3.90619"
                                                        stroke="#F5F5F5" stroke-width="1.5" stroke-linejoin="round" />
                                                    <path d="M37.5101 15.749H32.6392V19.2646H34.5746" stroke="#F5F5F5"
                                                        stroke-width="1.5" stroke-linecap="round"
                                                        stroke-linejoin="round" />
                                                    <path d="M13.1089 30.7224L45.0331 30.7224" stroke="#F5F5F5"
                                                        stroke-width="1.5" stroke-linecap="round"
                                                        stroke-linejoin="round" />
                                                    <path
                                                        d="M42.8285 19.8506C42.8285 22.1622 41.0371 23.9834 38.891 23.9834C36.745 23.9834 34.9536 22.1622 34.9536 19.8506C34.9536 17.539 36.745 15.7179 38.891 15.7179C41.0371 15.7179 42.8285 17.539 42.8285 19.8506Z"
                                                        stroke="#F5F5F5" stroke-width="1.5" stroke-linejoin="round" />
                                                    <path
                                                        d="M38.9399 18.5811V21.9501M38.9399 27.2369V21.9501M37.0356 19.8994L38.9399 21.9501M38.9399 21.9501L40.9907 19.8994"
                                                        stroke="#F5F5F5" stroke-width="1.5" stroke-linecap="round"
                                                        stroke-linejoin="round" />
                                                    <path
                                                        d="M45.1713 28.1268C46.4818 29.2319 45.7173 30.1659 45.1713 30.4948H38.5163C37.5266 30.4948 35.7111 30.1791 36.3663 28.9161C37.0216 27.6532 38.0727 28.3899 38.5163 28.9161C38.2433 28.357 38.1887 27.1401 40.1545 26.7454C42.1202 26.3507 42.6117 28.0281 42.6117 28.9161C42.9188 28.1926 43.8608 27.0217 45.1713 28.1268Z"
                                                        stroke="#F5F5F5" stroke-width="1.5" stroke-linecap="round"
                                                        stroke-linejoin="round" />
                                                    <path
                                                        d="M13.1089 21.9158H15.2858H17.6442M29.2545 21.9158H17.6442M17.6442 21.9158V26.1356V30.3555M25.2181 21.9158V26.1356V30.3555"
                                                        stroke="#F5F5F5" stroke-width="1.5" stroke-linecap="round"
                                                        stroke-linejoin="round" />
                                                    <path
                                                        d="M21.6911 44.4581C21.2711 44.4581 20.9081 44.4071 20.6021 44.3051C20.2961 44.2031 20.0411 44.0711 19.8371 43.9091C19.6391 43.7411 19.4891 43.5611 19.3871 43.3691C19.2851 43.1711 19.2311 42.9761 19.2251 42.7841C19.2251 42.7301 19.2431 42.6881 19.2791 42.6581C19.3211 42.6221 19.3691 42.6041 19.4231 42.6041H20.2331C20.2931 42.6041 20.3441 42.6161 20.3861 42.6401C20.4281 42.6641 20.4641 42.7121 20.4941 42.7841C20.5481 42.9461 20.6351 43.0751 20.7551 43.1711C20.8811 43.2671 21.0251 43.3361 21.1871 43.3781C21.3491 43.4141 21.5201 43.4321 21.7001 43.4321C22.0601 43.4321 22.3451 43.3481 22.5551 43.1801C22.7711 43.0061 22.8791 42.7601 22.8791 42.4421C22.8791 42.1241 22.7801 41.8961 22.5821 41.7581C22.3841 41.6141 22.1081 41.5421 21.7541 41.5421H20.8271C20.7611 41.5421 20.7071 41.5241 20.6651 41.4881C20.6231 41.4461 20.6021 41.3921 20.6021 41.3261V40.9481C20.6021 40.8881 20.6141 40.8371 20.6381 40.7951C20.6681 40.7471 20.6981 40.7081 20.7281 40.6781L22.3391 39.1031H19.7651C19.6991 39.1031 19.6451 39.0821 19.6031 39.0401C19.5671 38.9981 19.5491 38.9471 19.5491 38.8871V38.2931C19.5491 38.2271 19.5671 38.1731 19.6031 38.1311C19.6451 38.0891 19.6991 38.0681 19.7651 38.0681H23.6261C23.6921 38.0681 23.7461 38.0891 23.7881 38.1311C23.8301 38.1731 23.8511 38.2271 23.8511 38.2931V38.8331C23.8511 38.8871 23.8391 38.9351 23.8151 38.9771C23.7911 39.0191 23.7641 39.0551 23.7341 39.0851L22.1771 40.6871L22.2851 40.6961C22.6511 40.7261 22.9751 40.8101 23.2571 40.9481C23.5451 41.0801 23.7671 41.2751 23.9231 41.5331C24.0851 41.7911 24.1661 42.1151 24.1661 42.5051C24.1661 42.9131 24.0581 43.2641 23.8421 43.5581C23.6321 43.8461 23.3411 44.0681 22.9691 44.2241C22.5971 44.3801 22.1711 44.4581 21.6911 44.4581Z"
                                                        fill="#F5F5F5" />
                                                    <path
                                                        d="M27.522 44.4581C27.006 44.4581 26.562 44.3621 26.19 44.1701C25.818 43.9721 25.53 43.7081 25.326 43.3781C25.122 43.0421 25.02 42.6671 25.02 42.2531C25.02 42.0671 25.044 41.8871 25.092 41.7131C25.14 41.5391 25.203 41.3741 25.281 41.2181C25.359 41.0621 25.434 40.9241 25.506 40.8041C25.584 40.6781 25.653 40.5791 25.713 40.5071L27.36 38.2481C27.384 38.2181 27.42 38.1821 27.468 38.1401C27.516 38.0921 27.582 38.0681 27.666 38.0681H28.503C28.557 38.0681 28.602 38.0891 28.638 38.1311C28.674 38.1671 28.692 38.2121 28.692 38.2661C28.692 38.2901 28.686 38.3141 28.674 38.3381C28.668 38.3561 28.659 38.3711 28.647 38.3831L27.387 40.1291C27.441 40.1111 27.504 40.0991 27.576 40.0931C27.648 40.0871 27.714 40.0841 27.774 40.0841C28.074 40.0901 28.359 40.1501 28.629 40.2641C28.899 40.3721 29.136 40.5221 29.34 40.7141C29.544 40.9061 29.703 41.1311 29.817 41.3891C29.937 41.6471 29.997 41.9291 29.997 42.2351C29.997 42.6311 29.898 43.0001 29.7 43.3421C29.502 43.6781 29.217 43.9481 28.845 44.1521C28.479 44.3561 28.038 44.4581 27.522 44.4581ZM27.513 43.4231C27.729 43.4231 27.927 43.3781 28.107 43.2881C28.293 43.1981 28.443 43.0661 28.557 42.8921C28.671 42.7181 28.728 42.5021 28.728 42.2441C28.728 41.9921 28.671 41.7791 28.557 41.6051C28.443 41.4311 28.293 41.2991 28.107 41.2091C27.927 41.1191 27.729 41.0741 27.513 41.0741C27.297 41.0741 27.096 41.1191 26.91 41.2091C26.73 41.2991 26.583 41.4311 26.469 41.6051C26.355 41.7791 26.298 41.9921 26.298 42.2441C26.298 42.5021 26.355 42.7181 26.469 42.8921C26.583 43.0661 26.73 43.1981 26.91 43.2881C27.096 43.3781 27.297 43.4231 27.513 43.4231Z"
                                                        fill="#F5F5F5" />
                                                    <path
                                                        d="M33.3356 44.4581C32.9096 44.4581 32.5466 44.3951 32.2466 44.2691C31.9466 44.1431 31.7006 43.9691 31.5086 43.7471C31.3166 43.5251 31.1726 43.2701 31.0766 42.9821C30.9806 42.6881 30.9236 42.3761 30.9056 42.0461C30.8996 41.8841 30.8936 41.7071 30.8876 41.5151C30.8876 41.3171 30.8876 41.1191 30.8876 40.9211C30.8936 40.7231 30.8996 40.5401 30.9056 40.3721C30.9176 40.0421 30.9746 39.7331 31.0766 39.4451C31.1786 39.1511 31.3256 38.8961 31.5176 38.6801C31.7156 38.4641 31.9646 38.2931 32.2646 38.1671C32.5646 38.0411 32.9216 37.9781 33.3356 37.9781C33.7556 37.9781 34.1156 38.0411 34.4156 38.1671C34.7156 38.2931 34.9616 38.4641 35.1536 38.6801C35.3516 38.8961 35.4986 39.1511 35.5946 39.4451C35.6966 39.7331 35.7536 40.0421 35.7656 40.3721C35.7776 40.5401 35.7836 40.7231 35.7836 40.9211C35.7836 41.1191 35.7836 41.3171 35.7836 41.5151C35.7836 41.7071 35.7776 41.8841 35.7656 42.0461C35.7536 42.3761 35.6996 42.6881 35.6036 42.9821C35.5076 43.2701 35.3636 43.5251 35.1716 43.7471C34.9796 43.9691 34.7306 44.1431 34.4246 44.2691C34.1246 44.3951 33.7616 44.4581 33.3356 44.4581ZM33.3356 43.4231C33.7256 43.4231 34.0106 43.2971 34.1906 43.0451C34.3766 42.7871 34.4726 42.4391 34.4786 42.0011C34.4906 41.8271 34.4966 41.6531 34.4966 41.4791C34.4966 41.2991 34.4966 41.1191 34.4966 40.9391C34.4966 40.7591 34.4906 40.5881 34.4786 40.4261C34.4726 40.0001 34.3766 39.6581 34.1906 39.4001C34.0106 39.1361 33.7256 39.0041 33.3356 39.0041C32.9516 39.0041 32.6666 39.1361 32.4806 39.4001C32.3006 39.6581 32.2046 40.0001 32.1926 40.4261C32.1926 40.5881 32.1896 40.7591 32.1836 40.9391C32.1836 41.1191 32.1836 41.2991 32.1836 41.4791C32.1896 41.6531 32.1926 41.8271 32.1926 42.0011C32.2046 42.4391 32.3036 42.7871 32.4896 43.0451C32.6756 43.2971 32.9576 43.4231 33.3356 43.4231Z"
                                                        fill="#F5F5F5" />
                                                    <path
                                                        d="M38.1887 40.7771C37.9247 40.7771 37.6817 40.7171 37.4597 40.5971C37.2437 40.4711 37.0697 40.3031 36.9377 40.0931C36.8057 39.8771 36.7397 39.6371 36.7397 39.3731C36.7397 39.1091 36.8057 38.8721 36.9377 38.6621C37.0697 38.4521 37.2437 38.2871 37.4597 38.1671C37.6817 38.0411 37.9247 37.9781 38.1887 37.9781C38.4527 37.9781 38.6927 38.0411 38.9087 38.1671C39.1247 38.2871 39.2987 38.4521 39.4307 38.6621C39.5627 38.8721 39.6287 39.1091 39.6287 39.3731C39.6287 39.6371 39.5627 39.8771 39.4307 40.0931C39.2987 40.3031 39.1247 40.4711 38.9087 40.5971C38.6927 40.7171 38.4527 40.7771 38.1887 40.7771ZM38.1887 40.0571C38.3927 40.0571 38.5577 39.9941 38.6837 39.8681C38.8097 39.7421 38.8727 39.5771 38.8727 39.3731C38.8727 39.1691 38.8097 39.0041 38.6837 38.8781C38.5577 38.7521 38.3927 38.6891 38.1887 38.6891C37.9847 38.6891 37.8197 38.7521 37.6937 38.8781C37.5677 39.0041 37.5047 39.1691 37.5047 39.3731C37.5047 39.5771 37.5677 39.7421 37.6937 39.8681C37.8197 39.9941 37.9847 40.0571 38.1887 40.0571Z"
                                                        fill="#F5F5F5" />
                                                </svg>