<svg width="55" height="39" viewBox="0 0 55 39" fill="none"
                                                    xmlns="http://www.w3.org/2000/svg">
                                                    <path
                                                        d="M9.45605 11.0872C9.45605 7.63544 12.2543 4.83722 15.7061 4.83722H41.0704C44.5222 4.83722 47.3204 7.63544 47.3204 11.0872V16.3835C47.3204 19.8353 44.5222 22.6335 41.0704 22.6335H36.1594C34.9046 22.6335 33.7231 22.0427 32.9703 21.0389C30.7757 18.1129 26.3867 18.1129 24.1921 21.0389C23.4393 22.0427 22.2578 22.6335 21.003 22.6335H15.7061C12.2543 22.6335 9.45605 19.8353 9.45605 16.3835V11.0872Z"
                                                        stroke="white" stroke-width="1.5" />
                                                    <path
                                                        d="M10.2505 4.84039V4.84039C10.2505 2.71947 11.9698 1.00012 14.0908 1.00012H42.6872C44.8081 1.00012 46.5274 2.71947 46.5274 4.84039V4.84039"
                                                        stroke="white" stroke-width="1.5" />
                                                    <circle cx="19.3178" cy="13.5426" r="3.30221" stroke="white"
                                                        stroke-width="1.5" />
                                                    <circle cx="37.4585" cy="13.5426" r="3.30221" stroke="white"
                                                        stroke-width="1.5" />
                                                    <path
                                                        d="M1 23.9345L4.66391 23.3841L5.40334 26.6827M15.8613 34.5142C7.01869 33.1108 2.83492 30.2674 2.83492 26.6827C2.83492 25.5171 3.48412 24.404 4.66429 23.3842M42.0979 34.5142C50.1673 33.0166 54.2073 30.0712 54.2073 26.6827C54.2073 25.5171 53.5581 24.404 52.3779 23.3842"
                                                        stroke="white" stroke-width="1.5" stroke-linecap="round"
                                                        stroke-linejoin="round" />
                                                    <path
                                                        d="M21.6911 38.2204C21.2711 38.2204 20.9081 38.1694 20.6021 38.0674C20.2961 37.9654 20.0411 37.8334 19.8371 37.6714C19.6391 37.5034 19.4891 37.3234 19.3871 37.1314C19.2851 36.9334 19.2311 36.7384 19.2251 36.5464C19.2251 36.4924 19.2431 36.4504 19.2791 36.4204C19.3211 36.3844 19.3691 36.3664 19.4231 36.3664H20.2331C20.2931 36.3664 20.3441 36.3784 20.3861 36.4024C20.4281 36.4264 20.4641 36.4744 20.4941 36.5464C20.5481 36.7084 20.6351 36.8374 20.7551 36.9334C20.8811 37.0294 21.0251 37.0984 21.1871 37.1404C21.3491 37.1764 21.5201 37.1944 21.7001 37.1944C22.0601 37.1944 22.3451 37.1104 22.5551 36.9424C22.7711 36.7684 22.8791 36.5224 22.8791 36.2044C22.8791 35.8864 22.7801 35.6584 22.5821 35.5204C22.3841 35.3764 22.1081 35.3044 21.7541 35.3044H20.8271C20.7611 35.3044 20.7071 35.2864 20.6651 35.2504C20.6231 35.2084 20.6021 35.1544 20.6021 35.0884V34.7104C20.6021 34.6504 20.6141 34.5994 20.6381 34.5574C20.6681 34.5094 20.6981 34.4704 20.7281 34.4404L22.3391 32.8654H19.7651C19.6991 32.8654 19.6451 32.8444 19.6031 32.8024C19.5671 32.7604 19.5491 32.7094 19.5491 32.6494V32.0554C19.5491 31.9894 19.5671 31.9354 19.6031 31.8934C19.6451 31.8514 19.6991 31.8304 19.7651 31.8304H23.6261C23.6921 31.8304 23.7461 31.8514 23.7881 31.8934C23.8301 31.9354 23.8511 31.9894 23.8511 32.0554V32.5954C23.8511 32.6494 23.8391 32.6974 23.8151 32.7394C23.7911 32.7814 23.7641 32.8174 23.7341 32.8474L22.1771 34.4494L22.2851 34.4584C22.6511 34.4884 22.9751 34.5724 23.2571 34.7104C23.5451 34.8424 23.7671 35.0374 23.9231 35.2954C24.0851 35.5534 24.1661 35.8774 24.1661 36.2674C24.1661 36.6754 24.0581 37.0264 23.8421 37.3204C23.6321 37.6084 23.3411 37.8304 22.9691 37.9864C22.5971 38.1424 22.1711 38.2204 21.6911 38.2204Z"
                                                        fill="white" />
                                                    <path
                                                        d="M27.522 38.2204C27.006 38.2204 26.562 38.1244 26.19 37.9324C25.818 37.7344 25.53 37.4704 25.326 37.1404C25.122 36.8044 25.02 36.4294 25.02 36.0154C25.02 35.8294 25.044 35.6494 25.092 35.4754C25.14 35.3014 25.203 35.1364 25.281 34.9804C25.359 34.8244 25.434 34.6864 25.506 34.5664C25.584 34.4404 25.653 34.3414 25.713 34.2694L27.36 32.0104C27.384 31.9804 27.42 31.9444 27.468 31.9024C27.516 31.8544 27.582 31.8304 27.666 31.8304H28.503C28.557 31.8304 28.602 31.8514 28.638 31.8934C28.674 31.9294 28.692 31.9744 28.692 32.0284C28.692 32.0524 28.686 32.0764 28.674 32.1004C28.668 32.1184 28.659 32.1334 28.647 32.1454L27.387 33.8914C27.441 33.8734 27.504 33.8614 27.576 33.8554C27.648 33.8494 27.714 33.8464 27.774 33.8464C28.074 33.8524 28.359 33.9124 28.629 34.0264C28.899 34.1344 29.136 34.2844 29.34 34.4764C29.544 34.6684 29.703 34.8934 29.817 35.1514C29.937 35.4094 29.997 35.6914 29.997 35.9974C29.997 36.3934 29.898 36.7624 29.7 37.1044C29.502 37.4404 29.217 37.7104 28.845 37.9144C28.479 38.1184 28.038 38.2204 27.522 38.2204ZM27.513 37.1854C27.729 37.1854 27.927 37.1404 28.107 37.0504C28.293 36.9604 28.443 36.8284 28.557 36.6544C28.671 36.4804 28.728 36.2644 28.728 36.0064C28.728 35.7544 28.671 35.5414 28.557 35.3674C28.443 35.1934 28.293 35.0614 28.107 34.9714C27.927 34.8814 27.729 34.8364 27.513 34.8364C27.297 34.8364 27.096 34.8814 26.91 34.9714C26.73 35.0614 26.583 35.1934 26.469 35.3674C26.355 35.5414 26.298 35.7544 26.298 36.0064C26.298 36.2644 26.355 36.4804 26.469 36.6544C26.583 36.8284 26.73 36.9604 26.91 37.0504C27.096 37.1404 27.297 37.1854 27.513 37.1854Z"
                                                        fill="white" />
                                                    <path
                                                        d="M33.3356 38.2204C32.9096 38.2204 32.5466 38.1574 32.2466 38.0314C31.9466 37.9054 31.7006 37.7314 31.5086 37.5094C31.3166 37.2874 31.1726 37.0324 31.0766 36.7444C30.9806 36.4504 30.9236 36.1384 30.9056 35.8084C30.8996 35.6464 30.8936 35.4694 30.8876 35.2774C30.8876 35.0794 30.8876 34.8814 30.8876 34.6834C30.8936 34.4854 30.8996 34.3024 30.9056 34.1344C30.9176 33.8044 30.9746 33.4954 31.0766 33.2074C31.1786 32.9134 31.3256 32.6584 31.5176 32.4424C31.7156 32.2264 31.9646 32.0554 32.2646 31.9294C32.5646 31.8034 32.9216 31.7404 33.3356 31.7404C33.7556 31.7404 34.1156 31.8034 34.4156 31.9294C34.7156 32.0554 34.9616 32.2264 35.1536 32.4424C35.3516 32.6584 35.4986 32.9134 35.5946 33.2074C35.6966 33.4954 35.7536 33.8044 35.7656 34.1344C35.7776 34.3024 35.7836 34.4854 35.7836 34.6834C35.7836 34.8814 35.7836 35.0794 35.7836 35.2774C35.7836 35.4694 35.7776 35.6464 35.7656 35.8084C35.7536 36.1384 35.6996 36.4504 35.6036 36.7444C35.5076 37.0324 35.3636 37.2874 35.1716 37.5094C34.9796 37.7314 34.7306 37.9054 34.4246 38.0314C34.1246 38.1574 33.7616 38.2204 33.3356 38.2204ZM33.3356 37.1854C33.7256 37.1854 34.0106 37.0594 34.1906 36.8074C34.3766 36.5494 34.4726 36.2014 34.4786 35.7634C34.4906 35.5894 34.4966 35.4154 34.4966 35.2414C34.4966 35.0614 34.4966 34.8814 34.4966 34.7014C34.4966 34.5214 34.4906 34.3504 34.4786 34.1884C34.4726 33.7624 34.3766 33.4204 34.1906 33.1624C34.0106 32.8984 33.7256 32.7664 33.3356 32.7664C32.9516 32.7664 32.6666 32.8984 32.4806 33.1624C32.3006 33.4204 32.2046 33.7624 32.1926 34.1884C32.1926 34.3504 32.1896 34.5214 32.1836 34.7014C32.1836 34.8814 32.1836 35.0614 32.1836 35.2414C32.1896 35.4154 32.1926 35.5894 32.1926 35.7634C32.2046 36.2014 32.3036 36.5494 32.4896 36.8074C32.6756 37.0594 32.9576 37.1854 33.3356 37.1854Z"
                                                        fill="white" />
                                                    <path
                                                        d="M38.1887 34.5394C37.9247 34.5394 37.6817 34.4794 37.4597 34.3594C37.2437 34.2334 37.0697 34.0654 36.9377 33.8554C36.8057 33.6394 36.7397 33.3994 36.7397 33.1354C36.7397 32.8714 36.8057 32.6344 36.9377 32.4244C37.0697 32.2144 37.2437 32.0494 37.4597 31.9294C37.6817 31.8034 37.9247 31.7404 38.1887 31.7404C38.4527 31.7404 38.6927 31.8034 38.9087 31.9294C39.1247 32.0494 39.2987 32.2144 39.4307 32.4244C39.5627 32.6344 39.6287 32.8714 39.6287 33.1354C39.6287 33.3994 39.5627 33.6394 39.4307 33.8554C39.2987 34.0654 39.1247 34.2334 38.9087 34.3594C38.6927 34.4794 38.4527 34.5394 38.1887 34.5394ZM38.1887 33.8194C38.3927 33.8194 38.5577 33.7564 38.6837 33.6304C38.8097 33.5044 38.8727 33.3394 38.8727 33.1354C38.8727 32.9314 38.8097 32.7664 38.6837 32.6404C38.5577 32.5144 38.3927 32.4514 38.1887 32.4514C37.9847 32.4514 37.8197 32.5144 37.6937 32.6404C37.5677 32.7664 37.5047 32.9314 37.5047 33.1354C37.5047 33.3394 37.5677 33.5044 37.6937 33.6304C37.8197 33.7564 37.9847 33.8194 38.1887 33.8194Z"
                                                        fill="white" />
                                                </svg>